M48
; DRILL file {KiCad 9.0.7} date 2026-03-09T00:52:11+0100
; FORMAT={-:-/ absolute / inch / decimal}
; #@! TF.CreationDate,2026-03-09T00:52:11+01:00
; #@! TF.GenerationSoftware,Kicad,Pcbnew,9.0.7
; #@! TF.FileFunction,Plated,1,2,PTH
FMAT,2
INCH
; #@! TA.AperFunction,Plated,PTH,ViaDrill
T1C0.0118
; #@! TA.AperFunction,Plated,PTH,ViaDrill
T2C0.0197
; #@! TA.AperFunction,Plated,PTH,ViaDrill
T3C0.0236
; #@! TA.AperFunction,Plated,PTH,ComponentDrill
T4C0.0236
; #@! TA.AperFunction,Plated,PTH,ComponentDrill
T5C0.0256
; #@! TA.AperFunction,Plated,PTH,ComponentDrill
T6C0.0276
; #@! TA.AperFunction,Plated,PTH,ComponentDrill
T7C0.0394
; #@! TA.AperFunction,Plated,PTH,ComponentDrill
T8C0.0984
%
G90
G05
T1
X3.1346Y-4.3201
X3.1701Y-2.2764
X3.172Y-2.6839
X3.1866Y-4.3508
X3.2126Y-2.6315
X3.2142Y-2.3276
X3.3307Y-4.3878
X3.3331Y-4.3035
X3.3587Y-4.2252
X3.5098Y-1.6945
X3.5236Y-1.8315
X3.5241Y-1.7858
X3.5276Y-1.8756
X3.5402Y-1.7669
X3.5421Y-1.7398
X3.5427Y-1.715
X3.5524Y-1.9043
X3.559Y-1.8348
X3.5611Y-1.8595
X3.5681Y-1.8055
X3.5689Y-1.8831
X3.589Y-1.7126
X3.6059Y-1.8441
X3.6079Y-1.9315
X3.7705Y-1.5886
X3.8004Y-1.567
X3.8791Y-1.7321
X3.8831Y-1.7566
X3.8927Y-1.7114
X3.8979Y-1.7765
X3.9038Y-1.6892
X3.9173Y-1.7953
X3.9315Y-1.6487
X3.937Y-2.0287
X3.9421Y-2.3504
X3.9433Y-2.3146
X3.9449Y-3.8091
X3.9579Y-1.6646
X3.9606Y-3.7181
X3.9638Y-3.6795
X3.9685Y-3.2969
X3.9709Y-3.8409
X3.9713Y-3.2028
X3.9764Y-3.8055
X3.9774Y-2.2992
X3.987Y-1.463
X3.9874Y-2.0472
X3.9886Y-3.7004
X3.9979Y-3.2258
X4.0039Y-3.2724
X4.0063Y-3.1299
X4.0111Y-3.5487
X4.0228Y-1.4291
X4.0248Y-4.2705
X4.0268Y-4.3398
X4.0327Y-3.3161
X4.035Y-1.7866
X4.0748Y-1.7059
X4.1102Y-4.2677
X4.1193Y-2.9953
X4.1748Y-3.865
X4.178Y-1.7016
X4.178Y-1.8189
X4.1917Y-1.5134
X4.2087Y-2.9382
X4.21Y-1.6032
X4.2114Y-3.2516
X4.2122Y-2.3291
X4.2157Y-2.3673
X4.2224Y-1.763
X4.2343Y-3.5406
X4.2362Y-2.7953
X4.2378Y-2.5283
X4.2406Y-2.6665
X4.2409Y-2.9417
X4.2458Y-3.5186
X4.2492Y-2.9693
X4.2539Y-2.4614
X4.2555Y-1.6858
X4.2559Y-1.3433
X4.2563Y-3.6382
X4.2598Y-1.4287
X4.2618Y-2.713
X4.2638Y-2.9201
X4.2654Y-2.0858
X4.2705Y-3.5819
X4.2803Y-3.1976
X4.2881Y-2.8629
X4.3Y-4.1598
X4.302Y-3.3571
X4.3035Y-2.9976
X4.3085Y-4.0109
X4.3134Y-2.965
X4.3151Y-4.0348
X4.317Y-4.0603
X4.3185Y-4.0858
X4.3224Y-3.7276
X4.323Y-1.6057
X4.3244Y-4.1697
X4.3272Y-1.7642
X4.3323Y-2.75
X4.333Y-2.9498
X4.3335Y-3.9121
X4.3374Y-3.276
X4.3425Y-2.7114
X4.3473Y-3.8464
X4.3474Y-4.0846
X4.348Y-3.6429
X4.3492Y-4.1354
X4.3496Y-3.5835
X4.3531Y-2.9643
X4.3531Y-2.8752
X4.3535Y-3.5224
X4.365Y-3.2776
X4.3685Y-3.1957
X4.3704Y-4.0075
X4.3737Y-3.9627
X4.3744Y-3.3079
X4.3861Y-3.7802
X4.3909Y-2.9252
X4.3961Y-3.1476
X4.4006Y-3.8712
X4.4008Y-3.2945
X4.4008Y-4.0839
X4.4035Y-3.3276
X4.4075Y-4.1933
X4.4087Y-2.9626
X4.4091Y-3.2627
X4.413Y-2.4909
X4.4177Y-3.2343
X4.4195Y-3.2083
X4.422Y-3.3732
X4.4255Y-3.7562
X4.4354Y-2.3752
X4.4378Y-3.3449
X4.4386Y-3.148
X4.439Y-1.7484
X4.4538Y-4.0009
X4.4557Y-3.8789
X4.4583Y-1.616
X4.4617Y-3.9417
X4.4681Y-3.8378
X4.4763Y-4.017
X4.4799Y-3.6799
X4.4815Y-4.1008
X4.4831Y-2.3319
X4.4937Y-3.3382
X4.4941Y-3.9929
X4.5029Y-3.8325
X4.5059Y-3.7433
X4.5083Y-3.3157
X4.5091Y-3.8076
X4.5176Y-4.0115
X4.5179Y-3.2929
X4.5193Y-1.7504
X4.5244Y-3.1626
X4.5315Y-3.2654
X4.5334Y-3.5611
X4.5374Y-4.0909
X4.5386Y-3.5369
X4.5396Y-3.1331
X4.5398Y-1.7646
X4.5426Y-3.2952
X4.5437Y-3.8858
X4.5481Y-3.7618
X4.5484Y-3.513
X4.5513Y-3.8327
X4.5519Y-3.0724
X4.5574Y-3.2232
X4.5583Y-3.1984
X4.5591Y-3.1705
X4.5638Y-3.3154
X4.5663Y-4.1056
X4.5671Y-4.1964
X4.568Y-3.8511
X4.5725Y-3.5069
X4.5728Y-3.2827
X4.574Y-1.4669
X4.5831Y-3.2378
X4.5871Y-3.9413
X4.5874Y-1.6453
X4.5886Y-3.9785
X4.5893Y-3.6181
X4.5913Y-3.911
X4.6012Y-3.5193
X4.6015Y-1.7457
X4.6017Y-3.0109
X4.6043Y-4.1839
X4.605Y-3.743
X4.6087Y-3.5732
X4.6094Y-3.6409
X4.6129Y-3.9663
X4.6153Y-3.0596
X4.6173Y-3.3146
X4.6173Y-3.8831
X4.6177Y-4.3366
X4.6268Y-4.0724
X4.6291Y-3.5484
X4.6372Y-1.6058
X4.6374Y-3.9701
X4.6394Y-1.426
X4.6394Y-3.3551
X4.6395Y-3.698
X4.6398Y-3.4709
X4.6417Y-1.7626
X4.6441Y-3.9992
X4.6457Y-1.3362
X4.6465Y-4.1858
X4.6476Y-4.3449
X4.652Y-3.6272
X4.6531Y-3.5295
X4.6559Y-1.5311
X4.6559Y-4.0894
X4.656Y-1.6245
X4.6578Y-3.6521
X4.6591Y-3.3382
X4.6654Y-3.9618
X4.6707Y-3.512
X4.673Y-2.9909
X4.678Y-1.7138
X4.6803Y-1.5458
X4.6804Y-1.5848
X4.6839Y-3.3165
X4.685Y-4.2016
X4.6858Y-4.0925
X4.6953Y-2.111
X4.6953Y-3.9457
X4.696Y-1.565
X4.7043Y-3.8193
X4.7065Y-1.5875
X4.7091Y-1.5197
X4.7091Y-3.9028
X4.7122Y-3.7283
X4.7142Y-3.4813
X4.7173Y-3.5331
X4.7177Y-3.8634
X4.72Y-3.8385
X4.7201Y-1.7594
X4.7217Y-1.7287
X4.7232Y-3.7594
X4.726Y-3.9213
X4.7386Y-3.4583
X4.7453Y-3.4878
X4.748Y-1.4291
X4.7555Y-3.9138
X4.7556Y-3.1543
X4.7579Y-4.2051
X4.7693Y-3.0727
X4.7728Y-4.3059
X4.7734Y-3.801
X4.7737Y-3.8258
X4.776Y-3.5902
X4.7846Y-1.4295
X4.7854Y-3.7587
X4.7909Y-3.7835
X4.794Y-3.5731
X4.8027Y-4.0066
X4.811Y-3.957
X4.8122Y-1.4331
X4.8169Y-3.5047
X4.8207Y-3.9848
X4.8236Y-3.5854
X4.8264Y-1.6173
X4.8335Y-1.8169
X4.839Y-1.4193
X4.8415Y-3.9639
X4.848Y-1.702
X4.8638Y-1.6717
X4.8653Y-3.9483
X4.8689Y-3.322
X4.8693Y-1.6429
X4.8795Y-1.4851
X4.8831Y-4.1987
X4.8858Y-4.0271
X4.8866Y-2.0693
X4.8869Y-4.0934
X4.889Y-3.2547
X4.8965Y-3.8382
X4.8969Y-1.3795
X4.898Y-3.9491
X4.913Y-3.8783
X4.9234Y-3.9607
X4.937Y-3.1831
X4.9443Y-3.9816
X4.9458Y-3.831
X4.9476Y-3.1039
X4.9488Y-3.2433
X4.9491Y-3.9555
X4.9551Y-4.0205
X4.9599Y-1.4872
X4.9665Y-1.7075
X4.9691Y-3.8225
X4.976Y-2.124
X4.998Y-1.702
X5.012Y-1.471
X5.0142Y-3.1728
X5.0244Y-1.7461
X5.026Y-1.4965
X5.027Y-1.9822
X5.0331Y-2.0232
X5.0445Y-1.7094
X5.0508Y-1.9988
X5.0535Y-2.0437
X5.0543Y-1.5083
X5.0598Y-1.6244
X5.0675Y-3.833
X5.078Y-1.4846
X5.0922Y-1.6238
X5.0969Y-3.3339
X5.1016Y-3.2591
X5.1193Y-3.161
X5.126Y-1.6272
X5.1295Y-2.0795
X5.1332Y-3.1816
X5.1504Y-1.826
X5.1555Y-3.2075
X5.1693Y-3.0437
X5.172Y-3.3283
X5.1799Y-1.8031
X5.1803Y-3.628
X5.1819Y-1.839
X5.1839Y-1.9535
X5.194Y-3.0414
X5.2303Y-3.0402
X5.2413Y-3.4835
X5.2459Y-1.8703
X5.2528Y-3.7705
X5.2547Y-2.0157
X5.2687Y-3.0723
X5.2699Y-3.0475
X5.2783Y-3.4902
X5.282Y-3.7417
X5.2823Y-1.6689
X5.285Y-3.0909
X5.2969Y-1.922
X5.3071Y-1.6465
X5.3079Y-3.7783
X5.3083Y-3.1039
X5.3087Y-3.1504
X5.3091Y-3.5858
X5.3311Y-1.6701
X5.3311Y-1.7701
X5.3323Y-1.7209
X5.3465Y-2.0362
X5.352Y-4.0952
X5.3555Y-1.6453
X5.3587Y-3.0886
X5.3689Y-3.7787
X5.3764Y-2.0398
X5.378Y-1.9319
X5.3811Y-3.6736
X5.3819Y-1.6701
X5.3926Y-4.0846
X5.3941Y-4.1819
X5.4075Y-1.9386
X5.413Y-1.9059
X5.4185Y-4.0846
X5.4268Y-3.7799
X5.4331Y-4.1823
X5.4506Y-3.7893
X5.4531Y-3.1972
X5.474Y-4.1816
X5.4764Y-3.8079
X5.487Y-3.8701
X5.4933Y-3.9736
X5.4998Y-3.8161
X5.5031Y-3.5524
X5.5114Y-3.9425
X5.5197Y-1.8281
X5.5201Y-2.9469
X5.5209Y-3.8717
X5.5256Y-1.8
X5.5299Y-3.8295
X5.5395Y-3.0067
X5.5472Y-3.0303
X5.55Y-1.8598
X5.55Y-4.0697
X5.552Y-1.8122
X5.5545Y-3.8326
X5.5567Y-3.8681
X5.5579Y-4.0354
X5.559Y-2.8537
X5.5634Y-4.0894
X5.5803Y-4.1976
X5.5803Y-3.8205
X5.5833Y-1.4802
X5.5835Y-3.848
X5.5874Y-4.063
X5.5886Y-4.0201
X5.5906Y-3.4874
X5.5984Y-2.9559
X5.6012Y-4.0894
X5.6106Y-2.8055
X5.615Y-2.8657
X5.6201Y-4.1976
X5.626Y-3.1185
X5.6272Y-3.8669
X5.6402Y-4.0894
X5.6409Y-1.3744
X5.6413Y-3.1724
X5.6499Y-1.4811
X5.6579Y-3.8717
X5.6591Y-4.1976
X5.6799Y-4.0894
X5.6969Y-4.1976
X5.6972Y-3.8717
X5.7071Y-1.6685
X5.7247Y-1.4544
X5.7366Y-3.8709
X5.7504Y-3.1697
X5.7563Y-2.1587
X5.7692Y-1.6133
X5.7693Y-3.8724
X5.7807Y-2.8638
X5.7844Y-1.3789
X5.7866Y-2.6134
X5.7915Y-3.2671
X5.7933Y-2.6717
X5.7984Y-2.2106
X5.7988Y-3.8571
X5.8067Y-1.6776
X5.8083Y-2.9276
X5.816Y-2.6428
X5.8169Y-1.7043
X5.8213Y-3.4862
X5.8252Y-1.7323
X5.8283Y-2.7724
X5.8331Y-3.4606
X5.8354Y-1.4598
X5.8378Y-2.8067
X5.8441Y-2.1622
X5.8457Y-3.2024
X5.8461Y-1.3945
X5.8492Y-2.6146
X5.8573Y-3.1773
X5.8701Y-1.5406
X5.8843Y-2.5504
X5.8846Y-2.9217
X5.887Y-3.1728
X5.8953Y-1.5197
X5.898Y-1.7213
X5.9098Y-1.5488
X5.9177Y-1.4055
X5.9181Y-3.2058
X5.9276Y-1.7528
X5.9299Y-1.5217
X5.9303Y-1.6705
X5.9343Y-3.117
X5.9449Y-1.3819
X5.9559Y-1.7236
X5.9571Y-1.5539
X5.9575Y-2.4937
X5.9581Y-3.188
X5.9661Y-1.3496
X5.9677Y-2.0626
X5.9705Y-1.9504
X5.972Y-2.1587
X5.9886Y-3.1799
X5.9953Y-1.5555
X5.9965Y-1.5283
X5.9972Y-3.1157
X6.0024Y-3.0402
X6.0063Y-2.0114
X6.0228Y-2.2114
X6.028Y-1.7441
X6.0287Y-3.0299
X6.0371Y-3.1537
X6.0417Y-1.7047
X6.0512Y-3.2984
X6.0555Y-1.8976
X6.0563Y-3.6118
X6.0575Y-3.563
X6.0622Y-2.9087
X6.0654Y-1.6835
X6.0697Y-3.415
X6.0698Y-3.1434
X6.0705Y-2.1634
X6.0744Y-3.3173
X6.0816Y-2.9655
X6.0819Y-2.928
X6.0835Y-3.5874
X6.0858Y-3.5004
X6.0933Y-2.8846
X6.0961Y-2.9941
X6.0969Y-3.2693
X6.1012Y-3.1732
X6.1053Y-3.606
X6.1096Y-3.5576
X6.1142Y-2.952
X6.1228Y-3.2878
X6.1258Y-3.1702
X6.1268Y-4.0783
X6.1307Y-1.7575
X6.1339Y-4.011
X6.1364Y-3.4937
X6.1378Y-1.9185
X6.1402Y-1.8496
X6.1429Y-3.2028
X6.1515Y-3.6707
X6.1518Y-3.7048
X6.153Y-3.7432
X6.1533Y-3.7815
X6.1575Y-3.6366
X6.1606Y-3.4853
X6.1703Y-4.0097
X6.1724Y-3.1516
X6.176Y-3.1878
X6.1803Y-1.6933
X6.1843Y-3.9807
X6.188Y-3.5576
X6.1941Y-4.2382
X6.1984Y-4.413
X6.1999Y-4.0097
X6.2179Y-3.5781
X6.219Y-4.3833
X6.2295Y-1.7547
X6.2303Y-3.9748
X6.2319Y-4.0303
X6.2503Y-4.1806
X6.26Y-3.9736
X6.275Y-3.5115
X6.2764Y-2.1457
X6.2772Y-3.9465
X6.2777Y-3.5678
X6.2778Y-4.2758
X6.2783Y-1.8134
X6.2795Y-1.8425
X6.283Y-4.1638
X6.2896Y-3.9736
X6.2925Y-2.0728
X6.2937Y-3.189
X6.2965Y-1.9059
X6.2965Y-1.987
X6.2972Y-2.0307
X6.3039Y-2.2079
X6.3224Y-3.2028
X6.3224Y-4.0922
X6.3228Y-2.1264
X6.3311Y-3.1417
X6.3319Y-3.9697
X6.3346Y-2.2047
X6.3469Y-3.0862
X6.3492Y-1.5083
X6.3504Y-1.3689
X6.3506Y-3.5084
X6.3518Y-3.567
X6.3545Y-3.1659
X6.3547Y-1.4315
X6.3575Y-1.802
X6.361Y-1.4764
X6.3622Y-2.2039
X6.3736Y-3.5972
X6.3756Y-4.2378
X6.3791Y-3.0469
X6.3826Y-1.9506
X6.3913Y-4.0264
X6.397Y-2.1565
X6.3972Y-1.8839
X6.398Y-3.1031
X6.3988Y-2.8972
X6.4008Y-1.3346
X6.4028Y-3.2264
X6.4035Y-4.1622
X6.4053Y-3.2511
X6.4099Y-3.293
X6.4217Y-3.5602
X6.423Y-3.508
X6.4241Y-3.0587
X6.4244Y-1.6461
X6.4256Y-3.0835
X6.428Y-3.2622
X6.4287Y-2.6476
X6.4337Y-2.1723
X6.4339Y-1.8835
X6.437Y-3.5921
X6.4409Y-3.1276
X6.4456Y-4.2501
X6.4461Y-2.9555
X6.4461Y-4.2799
X6.4463Y-3.2968
X6.4488Y-3.035
X6.4606Y-1.6496
X6.4608Y-4.1866
X6.473Y-2.6274
X6.4752Y-3.272
X6.476Y-3.4776
X6.4776Y-3.6146
X6.4812Y-3.0435
X6.4819Y-3.7381
X6.4839Y-3.7016
X6.487Y-1.6484
X6.4904Y-4.1866
X6.4984Y-3.4516
X6.5016Y-3.2732
X6.5055Y-3.0386
X6.5091Y-4.2264
X6.5114Y-1.6299
X6.513Y-2.4484
X6.513Y-4.1138
X6.5169Y-2.9894
X6.5189Y-1.5146
X6.5201Y-1.5492
X6.5205Y-2.6445
X6.5215Y-4.3656
X6.5217Y-3.2886
X6.524Y-4.1902
X6.526Y-3.0531
X6.5295Y-4.3272
X6.5405Y-3.6916
X6.5433Y-3.2744
X6.5457Y-3.1482
X6.5512Y-3.0327
X6.5521Y-3.2512
X6.5551Y-2.9555
X6.5648Y-3.2298
X6.5652Y-1.8148
X6.5701Y-2.8319
X6.5866Y-4.1547
X6.5886Y-4.0496
X6.5985Y-3.3193
X6.6001Y-4.0182
X6.602Y-2.8409
X6.6108Y-3.1987
X6.621Y-3.9973
X6.6268Y-4.0272
X6.6323Y-2.428
X6.6343Y-1.5492
X6.6346Y-3.3606
X6.6362Y-4.2775
X6.6382Y-4.0831
X6.6484Y-3.2799
X6.6539Y-3.9969
X6.6609Y-4.2752
X6.6629Y-4.2454
X6.6676Y-4.2202
X6.678Y-4.1969
X6.6807Y-3.6173
X6.6839Y-4.0465
X6.7004Y-3.2835
X6.7035Y-2.1567
X6.7039Y-2.0409
X6.7055Y-2.2587
X6.7059Y-2.3307
X6.7106Y-3.7783
X6.711Y-3.4738
X6.7114Y-4.0803
X6.7142Y-4.1811
X6.7169Y-4.1488
X6.7327Y-4.2016
X6.7369Y-4.078
X6.7413Y-3.2484
X6.7421Y-4.1443
X6.7476Y-1.7106
X6.748Y-1.6386
X6.7501Y-2.5096
X6.7504Y-2.3882
X6.7689Y-3.7563
X6.7705Y-2.0417
X6.7724Y-3.6976
X6.7776Y-4.0835
X6.7831Y-3.2807
X6.7846Y-1.928
X6.7906Y-3.9854
X6.8028Y-3.7295
X6.8087Y-3.4535
X6.8175Y-3.9911
X6.8177Y-4.0555
X6.8224Y-4.0181
X6.824Y-3.1736
X6.828Y-3.248
X6.828Y-3.8193
X6.8378Y-2.0421
X6.8378Y-2.1567
X6.8384Y-3.9703
X6.8543Y-2.2417
X6.8551Y-3.9465
X6.8567Y-3.2094
X6.8579Y-3.1303
X6.8613Y-4.0962
X6.8622Y-1.5079
X6.863Y-4.2264
X6.8665Y-3.3508
X6.8673Y-3.9681
X6.8725Y-1.5524
X6.8744Y-1.6394
X6.8764Y-1.7087
X6.8776Y-4.0323
X6.8783Y-1.4465
X6.8791Y-1.7906
X6.8929Y-3.1693
X6.8929Y-3.2445
X6.8937Y-3.3783
X6.898Y-3.4705
X6.9008Y-3.5563
X6.9146Y-1.5772
X6.9157Y-1.6378
X6.9172Y-3.6771
X6.9193Y-3.3067
X6.922Y-1.6102
X6.922Y-1.7102
X6.928Y-3.5583
X6.9295Y-3.3752
X6.9299Y-3.3394
X6.9374Y-3.463
X6.9445Y-1.485
X6.9456Y-4.1
X6.9492Y-3.1307
X6.9516Y-4.0421
X6.9522Y-2.9315
X6.9539Y-3.5579
X6.9563Y-2.8984
X6.9594Y-4.1544
X6.9664Y-2.9519
X6.9783Y-4.0075
X6.9815Y-2.0957
X6.9826Y-3.5571
X6.9839Y-2.0398
X6.985Y-1.8161
X6.9852Y-2.968
X6.9854Y-2.8839
X6.9945Y-2.9142
X6.9953Y-1.9886
X6.9976Y-3.5276
X6.9996Y-2.8386
X7.0005Y-1.7037
X7.0031Y-1.6047
X7.0091Y-1.6331
X7.0154Y-1.7634
X7.0157Y-2.8679
X7.0157Y-2.8974
X7.0169Y-1.5681
X7.0177Y-1.8374
X7.026Y-1.5299
X7.0299Y-1.9516
X7.0323Y-3.5398
X7.0337Y-1.4485
X7.0341Y-2.0569
X7.0362Y-1.6646
X7.0374Y-2.114
X7.0382Y-2.9142
X7.0402Y-1.4917
X7.0429Y-1.7642
X7.0481Y-2.7699
X7.0516Y-2.5709
X7.0531Y-1.7374
X7.0567Y-3.513
X7.0645Y-2.3932
X7.0712Y-2.7606
X7.0776Y-3.7059
X7.0815Y-1.4516
X7.087Y-2.6358
X7.0906Y-3.9205
X7.0941Y-3.4543
X7.098Y-2.4846
X7.1004Y-3.9567
X7.1047Y-1.4299
X7.1071Y-1.9197
X7.1149Y-3.7843
X7.1264Y-2.5839
X7.1319Y-2.2618
X7.1323Y-2.2157
X7.1343Y-3.487
X7.135Y-1.9197
X7.1409Y-1.5681
X7.1413Y-1.7252
X7.1421Y-1.7531
X7.1438Y-3.9367
X7.1539Y-3.4114
X7.1579Y-2.3193
X7.1622Y-2.0461
X7.163Y-1.4343
X7.163Y-1.978
X7.1639Y-2.432
X7.1665Y-1.7091
X7.1665Y-2.7051
X7.1677Y-2.3472
X7.1709Y-2.1028
X7.1799Y-2.6252
X7.1807Y-2.5917
X7.1844Y-3.3974
X7.1933Y-2.1673
X7.1937Y-2.3736
X7.1945Y-3.7823
X7.1976Y-1.9134
X7.1984Y-1.8772
X7.1984Y-1.9461
X7.2012Y-2.087
X7.202Y-3.415
X7.2114Y-2.5362
X7.2116Y-3.4956
X7.2118Y-3.5917
X7.2126Y-3.6319
X7.2142Y-3.9441
X7.2197Y-2.9507
X7.2205Y-1.413
X7.2217Y-1.7213
X7.2258Y-1.4854
X7.2303Y-3.3858
X7.232Y-3.8055
X7.2323Y-3.4551
X7.235Y-2.0484
X7.2358Y-2.1197
X7.236Y-3.7564
X7.237Y-1.9898
X7.2446Y-2.9753
X7.2476Y-2.9463
X7.2543Y-3.7276
X7.2563Y-3.5449
X7.2567Y-3.2965
X7.2567Y-3.6327
X7.2575Y-3.1094
X7.2664Y-2.8976
X7.2685Y-2.9254
X7.285Y-3.6622
X7.2866Y-3.9433
X7.2878Y-1.4744
X7.2898Y-3.8474
X7.2958Y-3.8999
X7.2996Y-2.9276
X7.3098Y-3.3961
X7.3102Y-3.4634
X7.3146Y-2.8425
X7.3197Y-3.924
X7.3231Y-3.8879
T2
X4.298Y-3.6858
T3
X6.4925Y-3.3917
X7.1661Y-3.6107
T5
X6.5508Y-2.5201
X6.6008Y-2.5201
T6
X6.8927Y-2.4897
X6.9281Y-2.4543
T7
X4.0697Y-1.8839
X4.0697Y-1.9839
X4.0697Y-2.0839
X4.0697Y-2.1839
X4.0697Y-2.2839
X4.0697Y-2.3839
X4.0697Y-2.4839
X4.0697Y-2.5839
X4.0697Y-2.6839
X4.0697Y-2.7839
X4.0697Y-2.8839
X4.0697Y-2.9839
X4.0697Y-3.0839
X4.0697Y-3.1839
X4.0697Y-3.2839
X4.0697Y-3.3839
X4.0697Y-3.4839
X4.0697Y-3.5839
X4.0697Y-3.6839
X4.0697Y-3.7839
X4.1697Y-1.8839
X4.1697Y-1.9839
X4.1697Y-2.0839
X4.1697Y-2.1839
X4.1697Y-2.2839
X4.1697Y-2.3839
X4.1697Y-2.4839
X4.1697Y-2.5839
X4.1697Y-2.6839
X4.1697Y-2.7839
X4.1697Y-2.8839
X4.1697Y-2.9839
X4.1697Y-3.0839
X4.1697Y-3.1839
X4.1697Y-3.2839
X4.1697Y-3.3839
X4.1697Y-3.4839
X4.1697Y-3.5839
X4.1697Y-3.6839
X4.1697Y-3.7839
X6.875Y-2.5074
X6.9457Y-2.4367
T8
X3.189Y-1.4173
X3.7008Y-4.2913
T4
G00X7.1071Y-4.0
M15
G01X7.0638Y-4.0
M16
G05
G00X7.1071Y-4.3402
M15
G01X7.0638Y-4.3402
M16
G05
G00X7.2618Y-4.0
M15
G01X7.2382Y-4.0
M16
G05
G00X7.2618Y-4.3402
M15
G01X7.2382Y-4.3402
M16
G05
M30
