%TF.GenerationSoftware,KiCad,Pcbnew,9.0.7*%
%TF.CreationDate,2026-03-09T00:52:11+01:00*%
%TF.ProjectId,top_board_pizero,746f705f-626f-4617-9264-5f70697a6572,rev?*%
%TF.SameCoordinates,Original*%
%TF.FileFunction,Profile,NP*%
%FSLAX46Y46*%
G04 Gerber Fmt 4.6, Leading zero omitted, Abs format (unit mm)*
G04 Created by KiCad (PCBNEW 9.0.7) date 2026-03-09 00:52:11*
%MOMM*%
%LPD*%
G01*
G04 APERTURE LIST*
%TA.AperFunction,Profile*%
%ADD10C,0.050000*%
%TD*%
%TA.AperFunction,Profile*%
%ADD11C,0.100000*%
%TD*%
G04 APERTURE END LIST*
D10*
X82979123Y-42960737D02*
G75*
G02*
X80277649Y-42960737I-1350737J0D01*
G01*
X80277649Y-42960737D02*
G75*
G02*
X82979123Y-42960737I1350737J0D01*
G01*
X82979123Y-100985099D02*
G75*
G02*
X80277649Y-100985099I-1350737J0D01*
G01*
X80277649Y-100985099D02*
G75*
G02*
X82979123Y-100985099I1350737J0D01*
G01*
X76000000Y-68740000D02*
X76000000Y-111000000D01*
X78800000Y-67740000D02*
X77000000Y-67740000D01*
X78800000Y-58420000D02*
G75*
G02*
X79800000Y-59420000I0J-1000000D01*
G01*
X166919652Y-37220000D02*
X163309653Y-37220001D01*
X163309650Y-33890002D01*
X166919649Y-33890001D01*
X166919652Y-37220000D01*
X140660000Y-35740000D02*
X144460000Y-33000000D01*
D11*
X78000000Y-113000000D02*
G75*
G02*
X76000000Y-111000000I0J2000000D01*
G01*
D10*
X172110000Y-69070000D02*
X175110000Y-69070000D01*
X175110000Y-76940000D01*
X172110000Y-76940000D01*
X172110000Y-69070000D01*
X79800000Y-66740000D02*
G75*
G02*
X78800000Y-67740000I-1000000J0D01*
G01*
D11*
X128920000Y-98080000D02*
X138620000Y-98080000D01*
X138620000Y-101310000D01*
X128920000Y-101310000D01*
X128920000Y-98080000D01*
X76000000Y-35000000D02*
G75*
G02*
X78000000Y-33000000I2000000J0D01*
G01*
D10*
X127046088Y-35740000D02*
X140660000Y-35740000D01*
D11*
X187000000Y-111000000D02*
G75*
G02*
X185000000Y-113000000I-2000000J0D01*
G01*
D10*
X100415001Y-37194999D02*
X96805002Y-37195000D01*
X96804999Y-33865001D01*
X100414998Y-33865000D01*
X100415001Y-37194999D01*
D11*
X185000000Y-113000000D02*
X78000000Y-113000000D01*
D10*
X123190000Y-32990000D02*
X78000000Y-33000000D01*
D11*
X185000000Y-33000000D02*
G75*
G02*
X187000000Y-35000000I0J-2000000D01*
G01*
X187000000Y-35000000D02*
X187000000Y-111000000D01*
D10*
X123190000Y-32990000D02*
X127046088Y-35740000D01*
X77000000Y-58420000D02*
G75*
G02*
X76000000Y-57420000I0J1000000D01*
G01*
X77000000Y-58420000D02*
X78800000Y-58420000D01*
X76000000Y-57420000D02*
X76000000Y-35000000D01*
X76000000Y-68740000D02*
G75*
G02*
X77000000Y-67740000I1000000J0D01*
G01*
X79800000Y-59420000D02*
X79800000Y-66740000D01*
X144460000Y-33000000D02*
X185000000Y-33000000D01*
M02*
